<?xml version="1.0" encoding="UTF-8"?>
<svg id="Layer_1" xmlns="http://www.w3.org/2000/svg" version="1.1" viewBox="0 0 484.81 100.95">
  <!-- Generator: Adobe Illustrator 30.2.1, SVG Export Plug-In . SVG Version: 2.1.1 Build 1)  -->
  <defs>
    <style>
      .st0 {
        fill: #333;
      }
    </style>
  </defs>
  <path class="st0" d="M484.81,7.42c0,1.99-.67,3.65-2,4.98s-3.01,2-5.05,2c-.99,0-1.91-.19-2.74-.58-.84-.38-1.57-.89-2.2-1.52s-1.13-1.38-1.49-2.24-.54-1.74-.54-2.64v-.14c0-.95.18-1.84.54-2.68.36-.84.86-1.58,1.49-2.24.63-.65,1.37-1.16,2.2-1.52.84-.36,1.75-.54,2.74-.54s1.85.17,2.71.51,1.6.82,2.24,1.46c.63.63,1.14,1.37,1.52,2.2.38.84.58,1.77.58,2.81v.14h0Z"/>
  <g>
    <path class="st0" d="M52.06,56.24c.24-.04.57-.16.99-.32s.89-.34,1.46-.51c2.63-1.11,5.06-2.59,7.26-4.45,2.19-1.86,4.07-3.93,5.6-6.27,1.52-2.31,2.71-4.82,3.54-7.53s1.25-5.5,1.25-8.38c0-3.84-.75-7.51-2.25-11.01s-3.56-6.56-6.19-9.21c-2.61-2.63-5.67-4.73-9.17-6.25C51.04.77,47.28,0,43.24,0H7.16C6.19,0,5.26.18,4.39.56c-.89.38-1.64.89-2.29,1.56-.65.67-1.17,1.44-1.54,2.33C.2,5.32,0,6.25,0,7.22v7.18h43.24c2.37,0,4.45.43,6.25,1.34,1.82.91,3.32,2.06,4.53,3.48,1.21,1.4,2.12,2.99,2.75,4.69.61,1.72.93,3.34.93,4.86,0,2.89-.53,5.24-1.62,7.1-1.09,1.86-2.41,3.32-3.93,4.41s-3.12,1.86-4.77,2.29c-1.64.43-3.03.67-4.13.67H0v50.46c0,.97.2,1.9.55,2.79.38.87.89,1.64,1.54,2.29.65.63,1.4,1.17,2.29,1.56.87.4,1.8.59,2.77.59,1.03,0,1.96-.2,2.83-.59.85-.4,1.62-.93,2.29-1.56.67-.65,1.21-1.42,1.6-2.29.38-.89.59-1.82.59-2.79v-36.01h21.89l22.25,39.55c.59,1.17,1.44,2.06,2.53,2.71s2.37.99,3.86.99c.93,0,1.84-.2,2.71-.59.89-.4,1.66-.93,2.29-1.56s1.17-1.42,1.54-2.29c.38-.89.55-1.82.55-2.79,0-1.3-.3-2.45-.91-3.48l-19.12-33.99h.01Z"/>
    <path class="st0" d="M157.83,90.92c-.38-.87-.91-1.64-1.56-2.29-.63-.65-1.42-1.15-2.31-1.52-.91-.38-1.82-.55-2.75-.55h-50.48v-.02h-14.45v7.18c0,.97.18,1.9.55,2.79.38.87.89,1.64,1.54,2.29s1.4,1.17,2.29,1.56c.87.4,1.8.59,2.77.59h57.78c.97,0,1.9-.2,2.77-.59.89-.4,1.66-.93,2.29-1.56s1.19-1.42,1.56-2.29c.4-.89.59-1.82.59-2.79s-.2-1.9-.59-2.79h0ZM107.71,57.7h29.11c.87,0,1.76-.18,2.65-.53.87-.34,1.64-.83,2.29-1.44.63-.63,1.17-1.4,1.58-2.29.43-.91.63-1.9.63-2.97s-.2-2.1-.63-2.99c-.42-.87-.95-1.64-1.58-2.29-.65-.65-1.42-1.13-2.29-1.46-.89-.32-1.78-.47-2.65-.47h-50.54v14.43h21.43v.02h0ZM157.83,4.41c-.38-.85-.91-1.62-1.56-2.29-.63-.67-1.4-1.19-2.29-1.56-.87-.38-1.8-.55-2.77-.55h-57.78c-.97,0-1.9.18-2.77.55-.89.38-1.66.89-2.29,1.56-.65.67-1.17,1.44-1.54,2.33-.38.87-.55,1.8-.55,2.77v7.18h64.94c.97,0,1.9-.2,2.81-.59.91-.4,1.68-.93,2.33-1.56.65-.65,1.15-1.42,1.52-2.29.38-.89.55-1.8.55-2.73,0-1.01-.2-1.96-.59-2.81h-.01Z"/>
    <path class="st0" d="M226.9,75.63c.65-1.02,1.52-1.88,2.61-2.57,1.09-.7,2.33-1.04,3.72-1.04,1.02,0,1.98.22,2.88.66.9.44,1.66,1,2.26,1.67.6.67,1.08,1.45,1.43,2.33.35.88.52,1.74.52,2.57,0,.93-.22,1.89-.66,2.88-.44,1-1,1.99-1.67,2.99s-1.4,1.94-2.19,2.82c-.79.88-1.51,1.67-2.15,2.36-7.14,7.09-15.64,10.64-25.51,10.64-4.87,0-9.29-.67-13.28-2.02-3.99-1.34-7.46-3.41-10.43-6.19s-5.41-6.33-7.33-10.64-3.3-9.38-4.14-15.22c-.37-2.73-.62-5.47-.73-8.2-.12-2.73-.17-5.47-.17-8.2,0-4.54.22-8.93.66-13.17s1.19-8.23,2.26-11.96c1.07-3.73,2.49-7.16,4.28-10.29,1.78-3.13,4.01-5.8,6.67-8.03,2.66-2.22,5.83-3.95,9.49-5.18,3.66-1.23,7.9-1.84,12.72-1.84,3.38,0,6.63.45,9.73,1.36,3.1.9,5.98,2.15,8.62,3.75s5.02,3.47,7.13,5.6,3.88,4.45,5.32,6.95c.7,1.25,1.04,2.46,1.04,3.61,0,1.07-.21,2.04-.63,2.92s-.95,1.65-1.6,2.29-1.4,1.14-2.26,1.46-1.75.49-2.68.49c-1.34,0-2.43-.25-3.27-.76-.83-.51-1.59-1.17-2.26-1.98s-1.32-1.67-1.95-2.57-1.36-1.77-2.19-2.61c-2.13-1.9-4.45-3.39-6.95-4.48s-5.19-1.63-8.06-1.63c-4.36,0-7.94.78-10.74,2.33-2.8,1.55-5.02,3.85-6.64,6.88-1.62,3.04-2.74,6.8-3.34,11.3-.6,4.5-.9,9.69-.9,15.57,0,6.58.37,12.17,1.11,16.75.74,4.59,1.97,8.32,3.68,11.19,1.71,2.87,3.95,4.95,6.71,6.22,2.76,1.28,6.13,1.91,10.11,1.91,2.13,0,4.15-.3,6.05-.9,1.9-.6,3.65-1.39,5.25-2.36s3.02-2.12,4.28-3.44,2.32-2.72,3.2-4.21h0Z"/>
    <path class="st0" d="M327.07,92.7c-.04-.4-.14-.79-.28-1.23l-28.85-86.55c-.45-1.48-1.34-2.65-2.67-3.54-1.32-.87-2.71-1.32-4.13-1.32-1.58,0-2.97.45-4.17,1.36-1.21.91-2.08,2.06-2.57,3.44l-28.93,86.61c-.28.79-.42,1.56-.42,2.29,0,.89.18,1.78.55,2.65.38.89.87,1.64,1.5,2.29.61.65,1.38,1.17,2.29,1.56.91.4,1.86.59,2.89.59,1.62,0,3.05-.43,4.27-1.32,1.23-.87,2.1-2.06,2.61-3.54l5.56-16.75c1.58-4.8,3.14-9.61,4.73-14.39l11.69-34.96,11.67,34.96c1.6,4.79,3.2,9.59,4.8,14.39l5.56,16.75c.47,1.44,1.31,2.61,2.51,3.5,1.21.91,2.63,1.36,4.31,1.36.93,0,1.82-.18,2.71-.55.87-.38,1.64-.85,2.29-1.46.65-.59,1.17-1.34,1.56-2.21.4-.89.59-1.82.59-2.79,0-.38-.02-.75-.08-1.15h.01Z"/>
    <path class="st0" d="M341.33,7.23c0-.97.18-1.9.56-2.78.37-.88.88-1.66,1.53-2.33s1.41-1.19,2.29-1.56C346.59.19,347.52,0,348.49,0s1.96.19,2.82.56c.86.37,1.62.89,2.29,1.56.67.67,1.2,1.44,1.6,2.29.39.86.59,1.8.59,2.82v79.32h43.24c.93,0,1.84.19,2.75.56.9.37,1.68.88,2.33,1.53s1.17,1.41,1.56,2.29c.39.88.59,1.81.59,2.78s-.2,1.9-.59,2.78c-.39.88-.92,1.65-1.56,2.29s-1.41,1.17-2.29,1.56-1.81.59-2.78.59h-50.54c-.97,0-1.9-.2-2.78-.59s-1.65-.91-2.29-1.56c-.65-.65-1.16-1.41-1.53-2.29s-.56-1.81-.56-2.78V7.23h0Z"/>
    <path class="st0" d="M419.88,7.23c0-.97.18-1.9.56-2.78.37-.88.88-1.66,1.53-2.33s1.41-1.19,2.29-1.56C425.14.19,426.07,0,427.04,0s1.96.19,2.82.56c.86.37,1.62.89,2.29,1.56.67.67,1.2,1.44,1.6,2.29.39.86.59,1.8.59,2.82v79.32h43.24c.93,0,1.84.19,2.75.56.9.37,1.68.88,2.33,1.53s1.17,1.41,1.56,2.29c.39.88.59,1.81.59,2.78s-.2,1.9-.59,2.78c-.39.88-.92,1.65-1.56,2.29s-1.41,1.17-2.29,1.56-1.81.59-2.78.59h-50.54c-.97,0-1.9-.2-2.78-.59s-1.65-.91-2.29-1.56c-.65-.65-1.16-1.41-1.53-2.29s-.56-1.81-.56-2.78V7.23h0Z"/>
  </g>
</svg>